<?xml version="1.0" encoding="UTF-8"?>
<svg width="90px" height="46px" viewBox="0 0 90 46" version="1.1" xmlns="http://www.w3.org/2000/svg" xmlns:xlink="http://www.w3.org/1999/xlink">
    <!-- Generator: Sketch 55 (78076) - https://sketchapp.com -->
    <title>Logo_Acronym</title>
    <desc>Created with Sketch.</desc>
    <defs>
        <polygon id="path-1" points="0 0.0871909091 35.852393 0.0871909091 35.852393 45.6515152 0 45.6515152"></polygon>
    </defs>
    <g id="Narrative-V2" stroke="none" stroke-width="1" fill="none" fill-rule="evenodd">
        <g id="Our-vision" transform="translate(-30.000000, -40.000000)">
            <g id="Group" transform="translate(30.000000, 30.000000)">
                <g id="Logo_Acronym" transform="translate(0.000000, 10.000000)">
                    <g id="Group-10">
                        <g id="Group-3" transform="translate(0.000000, 0.261364)">
                            <mask id="mask-2" fill="white">
                                <use xlink:href="#path-1"></use>
                            </mask>
                            <g id="Clip-2"></g>
                            <path d="M20.7940272,17.9470394 L16.8543385,16.9015848 C12.7395525,15.7690091 10.0255447,14.8106758 10.0255447,12.2841606 C10.0255447,8.71219091 14.4029767,8.36370606 17.7298249,8.36370606 C21.1442218,8.36370606 25.0839105,9.14779697 29.3737938,10.7159788 C30.364144,11.0857212 30.9475681,10.9654939 31.2998638,9.93188788 L32.9632879,5.0531 C33.3271401,3.98603939 33.20107,3.51105455 32.0878016,3.04931212 C27.0975292,0.95840303 23.0702918,0.0871909091 17.9049222,0.0871909091 C9.50025292,0.0871909091 0.482743191,3.31067576 0.482743191,12.458403 C0.482743191,19.0796152 4.50998054,22.8258273 14.9282685,25.7008273 L19.4807977,26.9205242 C24.2959728,28.2273424 26.2220428,29.0114333 26.2220428,31.9735545 C26.2220428,35.022797 23.3329377,36.9394636 18.430214,36.9394636 C14.2278794,36.9394636 10.1130934,35.8940091 4.68507782,33.6288576 C3.45939689,33.1932515 2.60842412,33.2413424 2.14616732,34.4129485 L0.220097276,39.2917364 C-0.257217899,40.5006303 0.045,41.1212818 1.09558366,41.6440091 C6.08585603,44.083403 12.7395525,45.6515848 18.430214,45.6515848 C28.4983074,45.6515848 35.852393,40.6856758 35.852393,31.2765848 C35.852393,22.5644636 30.4243774,20.5606758 20.7940272,17.9470394" id="Fill-1" fill="#FFBB5D" mask="url(#mask-2)"></path>
                        </g>
                        <path d="M62.8809689,28.8021333 L40.4573113,28.8021333 C39.7884397,28.8021333 39.2438872,29.3436788 39.2438872,30.0092848 L39.2438872,35.8948455 C39.2438872,36.5604515 39.7884397,37.101997 40.4573113,37.101997 L62.8809689,37.101997 C63.5498405,37.101997 64.094393,36.5604515 64.094393,35.8948455 L64.094393,30.0092848 C64.094393,29.3436788 63.5498405,28.8021333 62.8809689,28.8021333" id="Fill-4" fill="#FFBB5D"></path>
                        <path d="M54.7721089,20.7325136 L48.5953774,20.7325136 C47.9261556,20.7325136 47.3819533,21.2740591 47.3819533,21.9400136 L47.3819533,43.9928318 C47.3819533,44.6584379 47.9261556,45.1999833 48.5953774,45.1999833 L54.7721089,45.1999833 C55.4409805,45.1999833 55.9855331,44.6584379 55.9855331,43.9928318 L55.9855331,21.9400136 C55.9855331,21.2740591 55.4409805,20.7325136 54.7721089,20.7325136" id="Fill-6" fill="#FF9E18"></path>
                        <path d="M88.7156965,1.04162121 L81.8788482,1.04162121 C81.2096265,1.04162121 80.6654241,1.58316667 80.6654241,2.24877273 L80.6654241,31.1524545 L58.7999767,2.35227273 C57.9591595,1.24478788 57.4422724,1.04162121 55.8621946,1.04162121 L48.5953074,1.04162121 C47.9260856,1.04162121 47.3818833,1.58316667 47.3818833,2.24877273 L47.3818833,16.4979697 C47.3818833,17.1635758 47.9260856,17.7051212 48.5956576,17.7051212 L54.7720389,17.7051212 C55.4409105,17.7051212 55.985463,17.1635758 55.985463,16.4979697 L55.985463,12.7325909 L79.5812218,43.7613333 C80.4122335,44.8562727 81.2278366,45.1998788 82.6583813,45.1998788 L88.7156965,45.1998788 C89.3845681,45.1998788 89.9287704,44.6583333 89.9287704,43.9927273 L89.9287704,2.24877273 C89.9287704,1.58316667 89.3845681,1.04162121 88.7156965,1.04162121" id="Fill-8" fill="#FF9E18"></path>
                    </g>
                </g>
            </g>
        </g>
    </g>
</svg>