<?xml version="1.0" encoding="UTF-8"?>
<svg width="740px" height="99px" viewBox="0 0 740 99" version="1.1" xmlns="http://www.w3.org/2000/svg" xmlns:xlink="http://www.w3.org/1999/xlink">
    <!-- Generator: Sketch 55 (78076) - https://sketchapp.com -->
    <title>Logo</title>
    <desc>Created with Sketch.</desc>
    <defs>
        <polygon id="path-1" points="0.774390222 0.4872 90.0959868 0.4872 90.0959868 55.2373277 0.774390222 55.2373277"></polygon>
    </defs>
    <g id="Narrative-V2" stroke="none" stroke-width="1" fill="none" fill-rule="evenodd">
        <g id="Welcome" transform="translate(-60.000000, -296.000000)">
            <g id="Logo" transform="translate(60.000000, 296.000000)">
                <g id="Group-30">
                    <path d="M181.875824,22 L170.124176,22 C168.951709,22 168,22.9288155 168,24.0730778 L168,74.9269222 C168,76.0699876 168.951709,77 170.124176,77 L181.875824,77 C183.047064,77 184,76.0699876 184,74.9269222 L184,24.0730778 C184,22.9288155 183.047064,22 181.875824,22" id="Fill-1" fill="#FFBB5D"></path>
                    <path d="M175.500585,0 C170.019806,0 167,2.84034374 167,8 C167,13.1584502 170.019806,16 175.500585,16 C180.981363,16 184,13.1584502 184,8 C184,2.84034374 180.981363,0 175.500585,0" id="Fill-3" fill-opacity="0.7" fill="#FF9E18"></path>
                    <path d="M234.635891,64.3828248 C233.662423,62.5908079 232.554478,62.5022837 230.393331,63.4533207 C228.530889,64.2715714 226.973102,64.5562844 225.252277,64.5562844 C221.392915,64.5562844 216.792148,62.89825 216.792148,55.0004559 L216.792148,33.7056008 L232.448563,33.7056008 C233.585069,33.7056008 234.510935,32.7760967 234.510935,31.633656 L234.510935,23.9619574 C234.510935,22.8183205 233.585069,21.8900126 232.448563,21.8900126 L216.792148,21.8900126 L216.792148,6.58968135 C216.792148,5.2020047 215.593758,4.88499237 214.846401,5.03333022 L203.442066,7.29189358 C202.262718,7.52755936 201.265448,8.72263605 201.265448,9.90335747 L201.265448,21.8900126 L193.061182,21.8900126 C191.924676,21.8900126 191,22.8183205 191,23.9619574 L191,31.633656 C191,32.7760967 191.924676,33.7056008 193.061182,33.7056008 L201.265448,33.7056008 L201.265448,58.954138 C201.265448,70.8797833 209.131738,78 222.306881,78 C227.500298,78 232.305756,76.7666426 235.839041,74.5284158 C238.171557,73.0498225 238.559516,71.61908 237.274252,69.2468707 L234.635891,64.3828248 Z" id="Fill-5" fill="#FFBB5D"></path>
                    <path d="M275.672065,20.9554279 C270.608183,20.9554279 265.610378,22.5939897 261.674607,24.2949272 L261.674607,3.07879037 C261.674607,1.93323653 260.741122,1 259.59379,1 L248.080817,1 C246.933484,1 246,1.93323653 246,3.07879037 L246,74.9212096 C246,76.0667635 246.933484,77 248.080817,77 L259.59379,77 C260.741122,77 261.674607,76.0667635 261.674607,74.9212096 L261.674607,38.4794028 C265.18148,36.5733451 269.924589,35.1710913 273.270476,35.1710913 C280.811635,35.1710913 282.326595,39.4198365 282.326595,46.273967 L282.326595,74.9212096 C282.326595,76.0667635 283.258878,77 284.407412,77 L295.919183,77 C297.066516,77 298,76.0667635 298,74.9212096 L298,41.9352568 C298,28.6024496 289.861747,20.9554279 275.672065,20.9554279" id="Fill-7" fill="#FFBB5D"></path>
                    <path d="M134.151727,21 C127.616667,21 120.3443,24.3440349 116.106282,27.2098369 C112.15959,22.8458114 106.324672,21 98.9731787,21 C93.6333956,21 88.0430479,23.0255982 83.3986115,25.7307906 L82.5953662,24.0527803 C81.8172972,22.428706 81.3473388,21.9241043 79.921878,21.9241043 L72.0764491,21.9241043 C70.9315248,21.9241043 70,22.8542014 70,24.0000428 L70,74.9228629 C70,76.0675057 70.9315248,77 72.0764491,77 L83.5640561,77 C84.7089804,77 85.6417041,76.0675057 85.6417041,74.9228629 L85.6417041,38.4992509 C89.19037,36.4844399 93.1790225,35.2043577 96.3212702,35.2043577 C103.72911,35.2043577 105.178549,39.2723342 105.178549,46.2984033 L105.178549,74.9228629 C105.178549,76.0675057 106.110073,77 107.254998,77 L118.743803,77 C119.888728,77 120.820253,76.0675057 120.820253,74.9228629 L120.820253,41.9631437 C120.820253,40.9779119 120.733934,39.5947519 120.638024,38.6083216 C124.23944,36.5371773 128.313213,35.2043577 131.501018,35.2043577 C138.908858,35.2043577 140.358296,39.2723342 140.358296,46.2984033 L140.358296,74.9228629 C140.358296,76.0675057 141.289821,77 142.434745,77 L153.922352,77 C155.067276,77 156,76.0675057 156,74.9228629 L156,41.9631437 C156,28.4455717 148.239691,21 134.151727,21" id="Fill-9" fill="#FFBB5D"></path>
                    <path d="M35.3794997,30.5736138 L28.6764618,28.7839388 C21.6755112,26.8451243 17.0578628,25.2045889 17.0578628,20.8795411 C17.0578628,14.7648184 24.5056827,14.16826 30.1660258,14.16826 C35.9753253,14.16826 42.6783632,15.5105163 49.9772266,18.1950287 C51.6622214,18.8273805 52.6548668,18.6209713 53.2542673,16.8527725 L56.0844389,8.50095602 C56.7029059,6.67429446 56.4884086,5.86058891 54.5948749,5.0707457 C46.1043603,1.49139579 39.252366,0 30.4639386,0 C16.1641245,0 0.821615553,5.51816444 0.821615553,21.1778203 C0.821615553,32.5124283 7.67360982,38.9254302 25.3994211,43.8470363 L33.1451537,45.9349904 C41.3377556,48.1720841 44.6147963,49.5143403 44.6147963,54.585086 C44.6147963,59.8049713 39.6992352,63.0860421 31.357677,63.0860421 C24.2077699,63.0860421 17.2068192,61.2963671 7.97152262,57.418738 C5.88613306,56.6730402 4.43827688,56.7553652 3.6517871,58.7609943 L0.374746361,67.1128107 C-0.437959742,69.181675 0.0768335668,70.2447419 1.86431033,71.1395793 C10.354825,75.3154876 21.6755112,78 31.357677,78 C48.4876626,78 61,69.499044 61,53.3919694 C61,38.4780115 51.7647034,35.0478011 35.3794997,30.5736138" id="Fill-11" fill="#FFBB5D"></path>
                    <path d="M344.949776,49 L307.051408,49 C305.920944,49 305,49.9134268 305,51.0361071 L305,60.9638929 C305,62.0865732 305.920944,63 307.051408,63 L344.949776,63 C346.08024,63 347,62.0865732 347,60.9638929 L347,51.0361071 C347,49.9134268 346.08024,49 344.949776,49" id="Fill-13" fill="#FFBB5D"></path>
                    <path d="M609.490848,43.9721657 C609.940038,36.9576088 614.516088,33.4007132 621.193495,33.4007132 C626.168957,33.4007132 631.663535,36.6455585 631.734647,43.9721657 L609.490848,43.9721657 Z M621.341644,21 C604.920723,21 593,33.0611641 593,49.6775459 C593,66.8821605 604.42294,78 622.101356,78 C630.244853,78 637.197226,76.154001 643.35433,72.3579864 C644.918792,71.3955322 645.300426,69.7133298 644.353452,67.9689565 L641.423643,62.5792134 C640.609411,61.0799371 639.368509,60.6483272 637.505377,61.5832826 C634.381195,63.1519035 629.495808,65.0206188 623.966858,65.0206188 C615.498617,65.0206188 610.402265,61.7709911 609.570256,53.6684426 L643.56174,53.6684426 C645.482946,53.6684426 647,53.6684426 647,45.4307918 C647,30.5898689 636.928186,21 621.341644,21 L621.341644,21 Z" id="Fill-15" fill="#FF9E18"></path>
                    <path d="M418.49121,43.9721657 C418.94041,36.9576088 423.51656,33.4007132 430.194113,33.4007132 C435.169685,33.4007132 440.663199,36.6455585 440.734312,43.9721657 L418.49121,43.9721657 Z M430.342266,21 C413.9198,21 402,33.0611641 402,49.6775459 C402,66.8821605 413.423191,78 431.101995,78 C439.245671,78 446.198196,76.154001 452.355436,72.3579864 C453.919932,71.3955322 454.301574,69.7133298 453.353394,67.9689565 L450.424705,62.5792134 C449.609271,61.0799371 448.369527,60.6483272 446.506354,61.5832826 C443.380918,63.1519035 438.496609,65.0206188 432.967538,65.0206188 C424.497926,65.0206188 419.402647,61.7709911 418.57062,53.6684426 L452.56285,53.6684426 C454.482913,53.6684426 456,53.6684426 456,45.4307918 C456,30.5898689 445.92915,21 430.342266,21 L430.342266,21 Z" id="Fill-17" fill="#FF9E18"></path>
                    <g id="Group-21" transform="translate(649.000000, 21.000000)">
                        <mask id="mask-2" fill="white">
                            <use xlink:href="#path-1"></use>
                        </mask>
                        <g id="Clip-20"></g>
                        <path d="M88.7415237,0.4872 L77.0192868,0.4872 C75.8135368,0.4872 74.5072079,1.45945532 74.1683526,2.61043404 L64.4157868,35.6945191 L53.1736947,2.60090213 C52.78455,1.45588085 51.4279316,0.4872 50.2114053,0.4872 L40.6659842,0.4872 C39.4494579,0.4872 38.0952342,1.45588085 37.7084842,2.60209362 L26.5526026,35.6540085 L17.0311289,2.61162553 C16.6994579,1.45945532 15.4015105,0.4872 14.1969579,0.4872 L2.13586579,0.4872 C1.0738,0.4872 0.538576316,1.22473191 0.873839474,2.22796596 L17.8644974,53.122434 C18.2464579,54.2686468 19.5958921,55.2373277 20.8112211,55.2373277 L30.8391816,55.2373277 C32.0557079,55.2373277 33.4231026,54.2710298 33.8218263,53.1260085 L45.4087605,19.9037106 L56.7310763,53.1236255 C57.1214184,54.2698383 58.4792342,55.2373277 59.6945632,55.2373277 L69.8350763,55.2373277 C71.0504053,55.2373277 72.4046289,54.2698383 72.7925763,53.122434 L89.9951684,2.22200851 C90.3328263,1.22115745 89.8023921,0.4872 88.7415237,0.4872" id="Fill-19" fill="#FF9E18" mask="url(#mask-2)"></path>
                    </g>
                    <path d="M491.832064,63.8146142 C487.962597,63.8146142 483.810144,62.7548997 480.644543,61.0078028 L480.644543,38.3587919 C484.193853,36.3539267 488.18323,35.0782118 491.326048,35.0782118 C500.425951,35.0782118 506.079666,40.5987515 506.079666,49.4834075 C506.079666,58.3227154 500.620204,63.8146142 491.832064,63.8146142 M493.582737,21 C488.57893,21 483.613493,22.5299032 478.396247,25.7018864 L477.597652,24.039519 C476.819442,22.4224997 476.350597,21.92009 474.92248,21.92009 L467.076826,21.92009 C465.931694,21.92009 465,22.8461468 465,23.9870106 L465,96.9342727 C465,98.0739432 465.931694,99 467.076826,99 L478.566518,99 C479.712849,99 480.644543,98.0739432 480.644543,96.9342727 L480.644543,76.0633864 C482.961187,76.8689127 486.752714,77.8940194 492.924436,77.8940194 C509.772867,77.8940194 522,65.753844 522,49.0287327 C522,30.4109331 510.46834,21 493.582737,21" id="Fill-22" fill="#FF9E18"></path>
                    <path d="M560.672065,20.9554279 C555.606982,20.9554279 550.610378,22.5939897 546.674607,24.2949272 L546.674607,3.07879037 C546.674607,1.93323653 545.739921,1 544.592588,1 L533.080817,1 C531.933484,1 531,1.93323653 531,3.07879037 L531,74.9212096 C531,76.0667635 531.933484,77 533.080817,77 L544.592588,77 C545.739921,77 546.674607,76.0667635 546.674607,74.9212096 L546.674607,38.4794028 C550.18148,36.5733451 554.923388,35.1710913 558.270476,35.1710913 C565.810434,35.1710913 567.325393,39.4198365 567.325393,46.273967 L567.325393,74.9212096 C567.325393,76.0667635 568.258878,77 569.407412,77 L580.919183,77 C582.066516,77 583,76.0667635 583,74.9212096 L583,41.9352568 C583,28.6024496 574.861747,20.9554279 560.672065,20.9554279" id="Fill-24" fill="#FF9E18"></path>
                    <path d="M331.884882,35 L321.115118,35 C319.948872,35 319,35.9296112 319,37.0721834 L319,74.9278166 C319,76.0703888 319.948872,77 321.115118,77 L331.884882,77 C333.051128,77 334,76.0703888 334,74.9278166 L334,37.0721834 C334,35.9296112 333.051128,35 331.884882,35" id="Fill-26" fill="#FF9E18"></path>
                    <path d="M389.918646,1 L378.187598,1 C377.039969,1 376.106244,1.93205171 376.106244,3.07762362 L376.106244,52.8230346 L338.591404,3.25635684 C337.148155,1.35026911 336.261297,1 333.550249,1 L321.081354,1 C319.933725,1 319,1.93205171 319,3.07762362 L319,27.6024591 C319,28.748031 319.933725,29.6788832 321.082556,29.6788832 L331.680396,29.6788832 C332.828024,29.6788832 333.76175,28.748031 333.76175,27.6024591 L333.76175,21.121281 L374.246004,74.5241252 C375.672428,76.408621 377.072415,77 379.526298,77 L389.918646,77 C391.066275,77 392,76.0679483 392,74.9223764 L392,3.07762362 C392,1.93205171 391.066275,1 389.918646,1" id="Fill-28" fill="#FF9E18"></path>
                </g>
            </g>
        </g>
    </g>
</svg>