<?xml version="1.0" encoding="UTF-8"?>
<svg width="298px" height="79px" viewBox="0 0 298 79" version="1.1" xmlns="http://www.w3.org/2000/svg" xmlns:xlink="http://www.w3.org/1999/xlink">
    <!-- Generator: Sketch 55 (78076) - https://sketchapp.com -->
    <title>Group</title>
    <desc>Created with Sketch.</desc>
    <g id="Narrative-V2" stroke="none" stroke-width="1" fill="none" fill-rule="evenodd">
        <g id="B04" transform="translate(-116.000000, -429.000000)">
            <g id="Group-30" transform="translate(116.000000, 428.000000)">
                <g id="Group" transform="translate(0.000000, 1.539062)">
                    <path d="M181.875824,22 L170.124176,22 C168.951709,22 168,22.9288155 168,24.0730778 L168,74.9269222 C168,76.0699876 168.951709,77 170.124176,77 L181.875824,77 C183.047064,77 184,76.0699876 184,74.9269222 L184,24.0730778 C184,22.9288155 183.047064,22 181.875824,22" id="Fill-1" fill="#FFBB5D"></path>
                    <path d="M175.500585,0 C170.019806,0 167,2.84034374 167,8 C167,13.1584502 170.019806,16 175.500585,16 C180.981363,16 184,13.1584502 184,8 C184,2.84034374 180.981363,0 175.500585,0" id="Fill-3" fill-opacity="0.7" fill="#FF9E18"></path>
                    <path d="M234.635891,64.3828248 C233.662423,62.5908079 232.554478,62.5022837 230.393331,63.4533207 C228.530889,64.2715714 226.973102,64.5562844 225.252277,64.5562844 C221.392915,64.5562844 216.792148,62.89825 216.792148,55.0004559 L216.792148,33.7056008 L232.448563,33.7056008 C233.585069,33.7056008 234.510935,32.7760967 234.510935,31.633656 L234.510935,23.9619574 C234.510935,22.8183205 233.585069,21.8900126 232.448563,21.8900126 L216.792148,21.8900126 L216.792148,6.58968135 C216.792148,5.2020047 215.593758,4.88499237 214.846401,5.03333022 L203.442066,7.29189358 C202.262718,7.52755936 201.265448,8.72263605 201.265448,9.90335747 L201.265448,21.8900126 L193.061182,21.8900126 C191.924676,21.8900126 191,22.8183205 191,23.9619574 L191,31.633656 C191,32.7760967 191.924676,33.7056008 193.061182,33.7056008 L201.265448,33.7056008 L201.265448,58.954138 C201.265448,70.8797833 209.131738,78 222.306881,78 C227.500298,78 232.305756,76.7666426 235.839041,74.5284158 C238.171557,73.0498225 238.559516,71.61908 237.274252,69.2468707 L234.635891,64.3828248 Z" id="Fill-5" fill="#FFBB5D"></path>
                    <path d="M275.672065,20.9554279 C270.608183,20.9554279 265.610378,22.5939897 261.674607,24.2949272 L261.674607,3.07879037 C261.674607,1.93323653 260.741122,1 259.59379,1 L248.080817,1 C246.933484,1 246,1.93323653 246,3.07879037 L246,74.9212096 C246,76.0667635 246.933484,77 248.080817,77 L259.59379,77 C260.741122,77 261.674607,76.0667635 261.674607,74.9212096 L261.674607,38.4794028 C265.18148,36.5733451 269.924589,35.1710913 273.270476,35.1710913 C280.811635,35.1710913 282.326595,39.4198365 282.326595,46.273967 L282.326595,74.9212096 C282.326595,76.0667635 283.258878,77 284.407412,77 L295.919183,77 C297.066516,77 298,76.0667635 298,74.9212096 L298,41.9352568 C298,28.6024496 289.861747,20.9554279 275.672065,20.9554279" id="Fill-7" fill="#FFBB5D"></path>
                    <path d="M134.151727,21 C127.616667,21 120.3443,24.3440349 116.106282,27.2098369 C112.15959,22.8458114 106.324672,21 98.9731787,21 C93.6333956,21 88.0430479,23.0255982 83.3986115,25.7307906 L82.5953662,24.0527803 C81.8172972,22.428706 81.3473388,21.9241043 79.921878,21.9241043 L72.0764491,21.9241043 C70.9315248,21.9241043 70,22.8542014 70,24.0000428 L70,74.9228629 C70,76.0675057 70.9315248,77 72.0764491,77 L83.5640561,77 C84.7089804,77 85.6417041,76.0675057 85.6417041,74.9228629 L85.6417041,38.4992509 C89.19037,36.4844399 93.1790225,35.2043577 96.3212702,35.2043577 C103.72911,35.2043577 105.178549,39.2723342 105.178549,46.2984033 L105.178549,74.9228629 C105.178549,76.0675057 106.110073,77 107.254998,77 L118.743803,77 C119.888728,77 120.820253,76.0675057 120.820253,74.9228629 L120.820253,41.9631437 C120.820253,40.9779119 120.733934,39.5947519 120.638024,38.6083216 C124.23944,36.5371773 128.313213,35.2043577 131.501018,35.2043577 C138.908858,35.2043577 140.358296,39.2723342 140.358296,46.2984033 L140.358296,74.9228629 C140.358296,76.0675057 141.289821,77 142.434745,77 L153.922352,77 C155.067276,77 156,76.0675057 156,74.9228629 L156,41.9631437 C156,28.4455717 148.239691,21 134.151727,21" id="Fill-9" fill="#FFBB5D"></path>
                    <path d="M35.3794997,30.5736138 L28.6764618,28.7839388 C21.6755112,26.8451243 17.0578628,25.2045889 17.0578628,20.8795411 C17.0578628,14.7648184 24.5056827,14.16826 30.1660258,14.16826 C35.9753253,14.16826 42.6783632,15.5105163 49.9772266,18.1950287 C51.6622214,18.8273805 52.6548668,18.6209713 53.2542673,16.8527725 L56.0844389,8.50095602 C56.7029059,6.67429446 56.4884086,5.86058891 54.5948749,5.0707457 C46.1043603,1.49139579 39.252366,0 30.4639386,0 C16.1641245,0 0.821615553,5.51816444 0.821615553,21.1778203 C0.821615553,32.5124283 7.67360982,38.9254302 25.3994211,43.8470363 L33.1451537,45.9349904 C41.3377556,48.1720841 44.6147963,49.5143403 44.6147963,54.585086 C44.6147963,59.8049713 39.6992352,63.0860421 31.357677,63.0860421 C24.2077699,63.0860421 17.2068192,61.2963671 7.97152262,57.418738 C5.88613306,56.6730402 4.43827688,56.7553652 3.6517871,58.7609943 L0.374746361,67.1128107 C-0.437959742,69.181675 0.0768335668,70.2447419 1.86431033,71.1395793 C10.354825,75.3154876 21.6755112,78 31.357677,78 C48.4876626,78 61,69.499044 61,53.3919694 C61,38.4780115 51.7647034,35.0478011 35.3794997,30.5736138" id="Fill-11" fill="#FFBB5D"></path>
                </g>
            </g>
        </g>
    </g>
</svg>