<?xml version="1.0" encoding="UTF-8"?>
<svg width="421px" height="99px" viewBox="0 0 421 99" version="1.1" xmlns="http://www.w3.org/2000/svg" xmlns:xlink="http://www.w3.org/1999/xlink">
    <!-- Generator: Sketch 55 (78076) - https://sketchapp.com -->
    <title>Group 2</title>
    <desc>Created with Sketch.</desc>
    <g id="Narrative-V2" stroke="none" stroke-width="1" fill="none" fill-rule="evenodd">
        <g id="B04" transform="translate(-948.000000, -428.000000)" fill="#FF9E18">
            <g id="Group-30" transform="translate(116.000000, 428.000000)">
                <g id="Group-2" transform="translate(832.000000, 0.882812)">
                    <path d="M290.490848,42.9721657 C290.940038,35.9576088 295.516088,32.4007132 302.193495,32.4007132 C307.168957,32.4007132 312.663535,35.6455585 312.734647,42.9721657 L290.490848,42.9721657 Z M302.341644,20 C285.920723,20 274,32.0611641 274,48.6775459 C274,65.8821605 285.42294,77 303.101356,77 C311.244853,77 318.197226,75.154001 324.35433,71.3579864 C325.918792,70.3955322 326.300426,68.7133298 325.353452,66.9689565 L322.423643,61.5792134 C321.609411,60.0799371 320.368509,59.6483272 318.505377,60.5832826 C315.381195,62.1519035 310.495808,64.0206188 304.966858,64.0206188 C296.498617,64.0206188 291.402265,60.7709911 290.570256,52.6684426 L324.56174,52.6684426 C326.482946,52.6684426 328,52.6684426 328,44.4307918 C328,29.5898689 317.928186,20 302.341644,20 L302.341644,20 Z" id="Fill-15"></path>
                    <path d="M99.4912096,42.9721657 C99.9404096,35.9576088 104.51656,32.4007132 111.194113,32.4007132 C116.169685,32.4007132 121.663199,35.6455585 121.734312,42.9721657 L99.4912096,42.9721657 Z M111.342266,20 C94.9197998,20 83,32.0611641 83,48.6775459 C83,65.8821605 94.4231909,77 112.101995,77 C120.245671,77 127.198196,75.154001 133.355436,71.3579864 C134.919932,70.3955322 135.301574,68.7133298 134.353394,66.9689565 L131.424705,61.5792134 C130.609271,60.0799371 129.369527,59.6483272 127.506354,60.5832826 C124.380918,62.1519035 119.496609,64.0206188 113.967538,64.0206188 C105.497926,64.0206188 100.402647,60.7709911 99.5706196,52.6684426 L133.56285,52.6684426 C135.482913,52.6684426 137,52.6684426 137,44.4307918 C137,29.5898689 126.92915,20 111.342266,20 L111.342266,20 Z" id="Fill-17"></path>
                    <path d="M418.741524,20.4872 L407.019287,20.4872 C405.813537,20.4872 404.507208,21.4594553 404.168353,22.610434 L394.415787,55.6945191 L383.173695,22.6009021 C382.78455,21.4558809 381.427932,20.4872 380.211405,20.4872 L370.665984,20.4872 C369.449458,20.4872 368.095234,21.4558809 367.708484,22.6020936 L356.552603,55.6540085 L347.031129,22.6116255 C346.699458,21.4594553 345.401511,20.4872 344.196958,20.4872 L332.135866,20.4872 C331.0738,20.4872 330.538576,21.2247319 330.873839,22.227966 L347.864497,73.122434 C348.246458,74.2686468 349.595892,75.2373277 350.811221,75.2373277 L360.839182,75.2373277 C362.055708,75.2373277 363.423103,74.2710298 363.821826,73.1260085 L375.408761,39.9037106 L386.731076,73.1236255 C387.121418,74.2698383 388.479234,75.2373277 389.694563,75.2373277 L399.835076,75.2373277 C401.050405,75.2373277 402.404629,74.2698383 402.792576,73.122434 L419.995168,22.2220085 C420.332826,21.2211574 419.802392,20.4872 418.741524,20.4872" id="Fill-19"></path>
                    <path d="M172.832064,62.8146142 C168.962597,62.8146142 164.810144,61.7548997 161.644543,60.0078028 L161.644543,37.3587919 C165.193853,35.3539267 169.18323,34.0782118 172.326048,34.0782118 C181.425951,34.0782118 187.079666,39.5987515 187.079666,48.4834075 C187.079666,57.3227154 181.620204,62.8146142 172.832064,62.8146142 M174.582737,20 C169.57893,20 164.613493,21.5299032 159.396247,24.7018864 L158.597652,23.039519 C157.819442,21.4224997 157.350597,20.92009 155.92248,20.92009 L148.076826,20.92009 C146.931694,20.92009 146,21.8461468 146,22.9870106 L146,95.9342727 C146,97.0739432 146.931694,98 148.076826,98 L159.566518,98 C160.712849,98 161.644543,97.0739432 161.644543,95.9342727 L161.644543,75.0633864 C163.961187,75.8689127 167.752714,76.8940194 173.924436,76.8940194 C190.772867,76.8940194 203,64.753844 203,48.0287327 C203,29.4109331 191.46834,20 174.582737,20" id="Fill-22"></path>
                    <path d="M241.672065,19.9554279 C236.606982,19.9554279 231.610378,21.5939897 227.674607,23.2949272 L227.674607,2.07879037 C227.674607,0.933236529 226.739921,0 225.592588,0 L214.080817,0 C212.933484,0 212,0.933236529 212,2.07879037 L212,73.9212096 C212,75.0667635 212.933484,76 214.080817,76 L225.592588,76 C226.739921,76 227.674607,75.0667635 227.674607,73.9212096 L227.674607,37.4794028 C231.18148,35.5733451 235.923388,34.1710913 239.270476,34.1710913 C246.810434,34.1710913 248.325393,38.4198365 248.325393,45.273967 L248.325393,73.9212096 C248.325393,75.0667635 249.258878,76 250.407412,76 L261.919183,76 C263.066516,76 264,75.0667635 264,73.9212096 L264,40.9352568 C264,27.6024496 255.861747,19.9554279 241.672065,19.9554279" id="Fill-24"></path>
                    <path d="M70.9186462,0 L59.1875977,0 C58.0399691,0 57.1062439,0.932051707 57.1062439,2.07762362 L57.1062439,51.8230346 L19.5914037,2.25635684 C18.1481555,0.35026911 17.2612969,0 14.5502494,0 L2.08135381,0 C0.933725122,0 0,0.932051707 0,2.07762362 L0,26.6024591 C0,27.748031 0.933725122,28.6788832 2.08255552,28.6788832 L12.6803957,28.6788832 C13.8280244,28.6788832 14.7617496,27.748031 14.7617496,26.6024591 L14.7617496,20.121281 L55.2460039,73.5241252 C56.6724283,75.408621 58.0724151,76 60.5262976,76 L70.9186462,76 C72.0662749,76 73,75.0679483 73,73.9223764 L73,2.07762362 C73,0.932051707 72.0662749,0 70.9186462,0" id="Fill-28"></path>
                </g>
            </g>
        </g>
    </g>
</svg>