<?xml version="1.0" encoding="UTF-8"?>
<svg width="180px" height="180px" viewBox="0 0 180 180" version="1.1" xmlns="http://www.w3.org/2000/svg" xmlns:xlink="http://www.w3.org/1999/xlink">
    <!-- Generator: Sketch 55 (78076) - https://sketchapp.com -->
    <title>Group 30</title>
    <desc>Created with Sketch.</desc>
    <g id="Narrative-V2" stroke="none" stroke-width="1" fill="none" fill-rule="evenodd">
        <g id="B01" transform="translate(-630.000000, -397.000000)">
            <g id="Group-30" transform="translate(630.000000, 397.000000)">
                <path d="M171.213325,60 L8.7917477,60 C3.94690116,60 0,63.9146864 0,68.7261735 L0,111.273827 C0,116.085314 3.94690116,120 8.7917477,120 L171.213325,120 C176.058172,120 180,116.085314 180,111.273827 L180,68.7261735 C180,63.9146864 176.058172,60 171.213325,60" id="Fill-13" fill="#FFBB5D"></path>
                <path d="M114.975495,0 L69.0245054,0 C64.0485223,0 60,3.98404786 60,8.88078621 L60,171.119214 C60,176.015952 64.0485223,180 69.0245054,180 L114.975495,180 C119.951478,180 124,176.015952 124,171.119214 L124,8.88078621 C124,3.98404786 119.951478,0 114.975495,0" id="Fill-26" fill="#FF9E18"></path>
            </g>
        </g>
    </g>
</svg>