<?xml version="1.0" encoding="UTF-8"?>
<svg width="1372px" height="1479px" viewBox="0 0 1372 1479" version="1.1" xmlns="http://www.w3.org/2000/svg" xmlns:xlink="http://www.w3.org/1999/xlink">
    <!-- Generator: Sketch 55 (78076) - https://sketchapp.com -->
    <title>Path</title>
    <desc>Created with Sketch.</desc>
    <g id="Exploration" stroke="none" stroke-width="1" fill="none" fill-rule="evenodd">
        <path d="M1268.19789,665.536487 C1297.17425,495.311258 1390.7026,423.360867 1368.67406,229.415728 C1343.76415,10.0298238 1162.49344,0.262802463 1158.79878,0.100018773 C1051.90924,-4.92302079 993.329124,180.789914 816.543123,210.021214 C639.757122,239.252514 464.992727,185.905973 361.49577,137.094121 C257.998813,88.282269 200.81291,63.678677 140.187953,81.2825703 C79.5629952,98.8864636 23.8410143,159.139684 6.71545141,222.020697 C2.29700822,238.438901 0.0394440947,255.364172 0,272.367367 C1.23155337,329.713736 28.4419118,432.988359 188.47414,510.659434 C260.508394,538.797758 431.392233,628.793883 589.519039,887.038579 L590.216145,885.78282 C660.809713,996.754786 711.210454,1100.65729 738.932024,1176.79355 C791.633213,1321.41523 824.722496,1415.94604 901.334411,1452.85143 C941.836251,1472.36222 973.833402,1479.87352 1004.76166,1478.92008 C1095.94308,1480.05956 1404.06379,1453.54907 1339.16325,1035.14848 C1323.36219,918.990692 1245.98346,796.042497 1268.19789,665.536487 Z" id="Path" fill="#78C3ED" fill-rule="nonzero"></path>
    </g>
</svg>