<?xml version="1.0" encoding="UTF-8"?>
<svg width="391px" height="2087px" viewBox="0 0 391 2087" version="1.1" xmlns="http://www.w3.org/2000/svg" xmlns:xlink="http://www.w3.org/1999/xlink">
    <!-- Generator: Sketch 55 (78076) - https://sketchapp.com -->
    <title>Fill 1</title>
    <desc>Created with Sketch.</desc>
    <g id="Exploration" stroke="none" stroke-width="1" fill="none" fill-rule="evenodd">
        <path d="M340.79789,2035.74287 C376.159129,2003.09803 392.565981,1937.95211 389.815596,1881.5514 C387.065211,1825.13872 370.067713,1770.76859 355.098699,1716.53023 C293.916059,1494.77892 242.219562,1267.30727 236.301163,1036.55915 C224.67318,583.322965 301.767483,300.301175 271.364096,129.511751 C262.564057,80.0652981 235.67472,20.6816362 175.392965,4.91028433 C80.4360756,-19.9357344 27.910287,51.8529673 9.58830865,167.236009 C-25.0808597,385.615024 44.6989704,747.990733 54.1970458,821.366753 C98.2211024,1161.74164 163.878338,1507.02822 116.555013,1851.49419 C106.341002,1925.86453 93.579455,2005.15855 155.131995,2061.1759 C216.672603,2117.19325 305.436651,2068.38771 340.79789,2035.74287" id="Fill-1" fill="#FFD934"></path>
    </g>
</svg>