<?xml version="1.0" encoding="UTF-8"?>
<svg width="1267px" height="1489px" viewBox="0 0 1267 1489" version="1.1" xmlns="http://www.w3.org/2000/svg" xmlns:xlink="http://www.w3.org/1999/xlink">
    <!-- Generator: Sketch 55 (78076) - https://sketchapp.com -->
    <title>Path</title>
    <desc>Created with Sketch.</desc>
    <g id="Desktop_Narrative" stroke="none" stroke-width="1" fill="none" fill-rule="evenodd">
        <path d="M913.951991,177.942482 C741.453294,139.190748 633.841161,194.297842 519.551548,253.026112 C468.054275,279.54136 415.046416,315.358397 354.17664,335.04318 C325.286671,344.396455 292.379914,346.164138 261.395721,348.515328 C129.888854,358.53792 18.2256013,337.651799 -80.0998574,442.477128 C-150.874275,517.989808 -183.180231,635.291891 -177.326708,732.823382 C-175.060828,770.699855 -172.314307,804.011244 -160.16095,840.617732 C-141.673429,896.445629 -89.0775486,992.707134 16.1657104,1052.05324 C112.723096,1106.49101 208.027381,1097.92719 309.700163,1140.24861 C386.413933,1172.20421 458.578777,1215.91575 538.914522,1238.75834 C559.118619,1244.5076 692.342062,1282.98474 775.990798,1285.5762 C1016.70622,1293.02449 1237.98999,1202.99278 1350.83768,960.236681 C1425.68039,799.257378 1339.1478,273.397374 914.072151,177.942482" id="Path" fill="#79CAC1" fill-rule="nonzero" transform="translate(598.500000, 725.500000) rotate(56.000000) translate(-598.500000, -725.500000) "></path>
    </g>
</svg>