<?xml version="1.0" encoding="UTF-8"?>
<svg width="334px" height="1682px" viewBox="0 0 334 1682" version="1.1" xmlns="http://www.w3.org/2000/svg" xmlns:xlink="http://www.w3.org/1999/xlink">
    <!-- Generator: Sketch 55 (78076) - https://sketchapp.com -->
    <title>Fill 4</title>
    <desc>Created with Sketch.</desc>
    <g id="Narrative-V1" stroke="none" stroke-width="1" fill="none" fill-rule="evenodd">
        <g id="Group-6" transform="translate(-0.051485, 0.435919)" fill="#78C3ED">
            <path d="M327.143861,1513.94064 C261.052045,1087.09248 255.820424,651.199133 311.670221,222.944212 C315.694085,192.180974 319.508684,159.44228 317.200791,128.439593 C314.970626,98.4785104 307.036499,70.1217372 288.053189,46.679659 C255.061092,5.9254027 195.25918,-7.25029033 143.660449,4.53061103 C60.7556987,23.4530852 -3.32119519,74.7550795 0.355886991,157.951709 C3.0823089,219.561992 12.1703819,277.167487 19.5066093,338.975315 C25.7845545,391.827743 30.1253052,448.900464 35.4944431,501.381745 C65.2638613,792.486142 95.0751325,1084.96139 79.3862485,1377.13133 C76.4983937,1430.9655 72.1038321,1485.52999 83.2307425,1538.3046 C94.363632,1591.09118 123.672668,1643.00377 172.240047,1667.99029 C220.819385,1692.9828 289.625665,1682.28541 317.888376,1636.09566 C339.76552,1600.34589 333.529428,1555.19175 327.143861,1513.94064 M129.418482,1295.92812 C125.657694,1295.92812 124.886404,1292.58181 124.414063,1286.61953 C123.684626,1277.51447 111.338,938.801584 102.859785,760.579534 C97.8912393,656.532864 96.0676457,599.298515 88.8450192,496.616706 C84.4803526,434.563442 65.9873197,330.09175 82.0349435,302.130068 C95.6132421,278.454526 128.264536,273.545818 147.020645,298.879544 C161.017473,317.796032 160.927788,343.099828 160.270099,366.470072 C157.926332,449.966013 152.622963,547.481705 148.228402,651.660072 C146.123795,696.760332 136.2166,922.902157 139.176203,1121.41753 C138.219563,1217.47857 139.90564,1281.85449 139.90564,1285.18882 C139.90564,1292.58181 133.167312,1295.92812 129.418482,1295.92812" id="Fill-4"></path>
        </g>
    </g>
</svg>