<?xml version="1.0" encoding="UTF-8"?>
<svg width="697px" height="1139px" viewBox="0 0 697 1139" version="1.1" xmlns="http://www.w3.org/2000/svg" xmlns:xlink="http://www.w3.org/1999/xlink">
    <!-- Generator: Sketch 55 (78076) - https://sketchapp.com -->
    <title>Path</title>
    <desc>Created with Sketch.</desc>
    <g id="Narrative-V1" stroke="none" stroke-width="1" fill="none" fill-rule="evenodd">
        <path d="M694.37564,207.78859 C684.611952,150.469097 635.87289,117.325819 566.225248,110.877773 C523.360275,106.917056 441.821571,121.967779 398.940723,124.613538 C365.728307,126.704797 329.658226,127.449411 299.525738,125.627482 C247.865508,120.36765 212.525719,92.0881324 201.777724,82.3922978 C150.704903,33.9131249 79.120399,-40.1205923 30.4924689,26.5937204 C-36.3610126,118.292234 23.8087083,236.812722 49.5435678,331.584752 C61.3711251,375.231851 79.9141948,430.840314 87.2806197,498.172498 C89.1381019,515.187737 91.932263,707.155756 62.5141911,844.038127 C52.2583494,891.756842 51.2899186,941.550973 57.6720367,989.792503 C62.8634612,1029.08281 72.4683903,1069.95741 92.4720442,1104.58992 C102.966025,1122.73 117.730626,1140.88592 140.957091,1138.8422 C149.131453,1137.97584 156.925406,1134.9457 163.532643,1130.06525 C174.645784,1122.14381 183.40929,1110.92706 189.839036,1098.98154 C193.127555,1092.86444 195.950832,1086.50941 198.285023,1079.9701 C200.634659,1073.427 203.047798,1066.85221 204.810024,1060.13483 C205.794331,1056.96626 206.752178,1053.73959 207.683565,1050.45484 C240.499083,936.972384 281.316063,822.998799 355.329582,730.571514 C392.22521,684.532142 613.980002,437.716118 649.39917,382.028441 C669.910854,349.899106 707.20338,283.026365 694.37564,207.78859 Z" id="Path" fill="#FFDA35" fill-rule="nonzero" transform="translate(348.500000, 569.500000) rotate(-180.000000) translate(-348.500000, -569.500000) "></path>
    </g>
</svg>