<?xml version="1.0" encoding="UTF-8"?>
<svg width="752px" height="467px" viewBox="0 0 752 467" version="1.1" xmlns="http://www.w3.org/2000/svg" xmlns:xlink="http://www.w3.org/1999/xlink">
    <!-- Generator: Sketch 55 (78076) - https://sketchapp.com -->
    <title>Path</title>
    <desc>Created with Sketch.</desc>
    <g id="Narrative-V1" stroke="none" stroke-width="1" fill="none" fill-rule="evenodd">
        <path d="M577.487195,319.496907 C570.93219,136.410408 553.014808,36.8629239 542.00635,-8.56834504 C540.889865,-13.8295792 539.646411,-19.0247735 538.275987,-24.1539279 C512.146527,-121.658635 473.155838,-200.543444 420.918202,-227.518287 C389.033287,-243.983451 351.108969,-217.391639 326.4546,-191.319768 C271.492733,-133.233282 258.293668,-96.3000188 145.70439,-89.2142966 C101.978925,-86.4959893 51.5475304,-67.0326697 49.8620688,-1.06182821 C49.218565,23.8791121 60.8552524,44.6436857 81.2976934,66.793429 C107.071621,94.7167296 149.40704,117.061357 196.218505,160.781026 C219.372897,182.366654 241.657271,215.028766 267.430964,244.567051 C318.627998,303.247544 373.326463,380.286551 425.004141,486.319541 C445.580779,528.565158 493.551595,562.13768 527.956124,538.669698 C556.905914,518.859078 573.675586,443.622738 577.574585,347.164932 C577.972025,338.053923 577.897186,328.851569 577.487195,319.496907 Z" id="Path" fill="#FFDA35" fill-rule="nonzero" transform="translate(313.836715, 156.899498) scale(-1, 1) rotate(-239.000000) translate(-313.836715, -156.899498) "></path>
    </g>
</svg>