<?xml version="1.0" encoding="UTF-8"?>
<svg width="1740px" height="1260px" viewBox="0 0 1740 1260" version="1.1" xmlns="http://www.w3.org/2000/svg" xmlns:xlink="http://www.w3.org/1999/xlink">
    <!-- Generator: Sketch 55 (78076) - https://sketchapp.com -->
    <title>Path</title>
    <desc>Created with Sketch.</desc>
    <g id="Desktop_Narrative" stroke="none" stroke-width="1" fill="none" fill-rule="evenodd">
        <g id="Scapula" transform="translate(873.500000, 909.000000) rotate(-46.000000) translate(-873.500000, -909.000000) translate(187.000000, 169.000000)" fill="#78C3ED" fill-rule="nonzero">
            <path d="M1268.51789,665.683655 C1297.49425,495.458425 1391.02259,423.508034 1368.99405,229.562895 C1344.08414,10.1769911 1162.81343,0.409969688 1159.11877,0.247185999 C1052.22923,-4.77585357 993.649115,180.937082 816.863114,210.168381 C640.077113,239.399681 465.312718,186.05314 361.815761,137.241288 C258.318804,88.4294362 201.132902,63.8258442 140.507944,81.4297375 C79.8829866,99.0336308 24.1610057,159.286851 7.03544274,222.167865 C2.61699955,238.586068 0.359435427,255.511339 0.319991332,272.514534 C1.5515447,329.860903 28.7619032,433.135527 188.794131,510.806601 C260.828385,538.944925 431.712225,628.94105 589.83903,887.185747 L590.536136,885.929987 C661.129705,996.901954 711.530446,1100.80446 739.252015,1176.94071 C791.953204,1321.5624 825.042488,1416.09321 901.654402,1452.9986 C942.156242,1472.50939 974.153393,1480.02069 1005.08165,1479.06724 C1096.26307,1480.20673 1404.38378,1453.69624 1339.48324,1035.29565 C1323.68218,919.137859 1246.30345,796.189664 1268.51789,665.683655 Z" id="Path"></path>
        </g>
    </g>
</svg>