<?xml version="1.0" encoding="UTF-8"?>
<svg width="908px" height="595px" viewBox="0 0 908 595" version="1.1" xmlns="http://www.w3.org/2000/svg" xmlns:xlink="http://www.w3.org/1999/xlink">
    <!-- Generator: Sketch 55 (78076) - https://sketchapp.com -->
    <title>Path</title>
    <desc>Created with Sketch.</desc>
    <g id="Desktop_Narrative" stroke="none" stroke-width="1" fill="none" fill-rule="evenodd">
        <path d="M768.064913,-121.833433 C738.167339,-124.422437 705.847885,-96.6531549 684.335905,-50.8882355 C683.296051,-48.5316729 682.249224,-46.19951 681.195424,-43.8917467 C678.03398,-36.6756488 674.54467,-29.6721366 670.727494,-22.8812103 C619.153111,73.1988813 545.369834,116.116682 518.347743,129.276145 C424.146033,182.915846 150.27446,304.043122 81.3072132,402.489176 C45.3634358,453.819592 80.9716794,547.84754 203.55074,515.829596 C301.442354,490.298926 405.223496,479.303213 439.412454,476.422343 C535.94106,468.282585 664.324102,533.570191 715.41478,523.596672 C732.431053,520.268682 750.766635,511.941843 768.528798,489.173375 C837.421283,400.8815 758.174736,236.732487 838.520089,-21.8708372 C857.198234,-81.972476 817.793046,-117.532354 768.064913,-121.833433 Z" id="Path" fill="#F78E82" fill-rule="nonzero" transform="translate(455.623105, 201.318045) scale(-1, 1) rotate(20.000000) translate(-455.623105, -201.318045) "></path>
    </g>
</svg>